<svg width="200" height="200" viewBox="0 0 200 200" fill="none" xmlns="http://www.w3.org/2000/svg">
  <rect width="200" height="200" fill="white"/>
  <rect x="10" y="10" width="70" height="70" rx="4" fill="none" stroke="#1a4a2e" stroke-width="4"/>
  <rect x="20" y="20" width="50" height="50" rx="2" fill="#1a4a2e"/>
  <rect x="30" y="30" width="30" height="30" fill="white"/>
  <rect x="120" y="10" width="70" height="70" rx="4" fill="none" stroke="#1a4a2e" stroke-width="4"/>
  <rect x="130" y="20" width="50" height="50" rx="2" fill="#1a4a2e"/>
  <rect x="140" y="30" width="30" height="30" fill="white"/>
  <rect x="10" y="120" width="70" height="70" rx="4" fill="none" stroke="#1a4a2e" stroke-width="4"/>
  <rect x="20" y="130" width="50" height="50" rx="2" fill="#1a4a2e"/>
  <rect x="30" y="140" width="30" height="30" fill="white"/>
  <rect x="95" y="10" width="10" height="10" fill="#1a4a2e"/>
  <rect x="95" y="30" width="10" height="10" fill="#1a4a2e"/>
  <rect x="95" y="50" width="10" height="10" fill="#1a4a2e"/>
  <rect x="95" y="70" width="10" height="10" fill="#1a4a2e"/>
  <rect x="10" y="95" width="10" height="10" fill="#1a4a2e"/>
  <rect x="30" y="95" width="10" height="10" fill="#1a4a2e"/>
  <rect x="50" y="95" width="10" height="10" fill="#1a4a2e"/>
  <rect x="70" y="95" width="10" height="10" fill="#1a4a2e"/>
  <rect x="95" y="95" width="10" height="10" fill="#1a4a2e"/>
  <rect x="115" y="95" width="10" height="10" fill="#1a4a2e"/>
  <rect x="135" y="95" width="10" height="10" fill="#1a4a2e"/>
  <rect x="155" y="95" width="10" height="10" fill="#1a4a2e"/>
  <rect x="175" y="95" width="10" height="10" fill="#1a4a2e"/>
  <rect x="115" y="115" width="10" height="10" fill="#1a4a2e"/>
  <rect x="135" y="115" width="10" height="10" fill="#1a4a2e"/>
  <rect x="155" y="115" width="10" height="10" fill="#1a4a2e"/>
  <rect x="175" y="115" width="10" height="10" fill="#1a4a2e"/>
  <rect x="115" y="135" width="10" height="10" fill="#1a4a2e"/>
  <rect x="135" y="135" width="10" height="10" fill="#1a4a2e"/>
  <rect x="155" y="135" width="10" height="10" fill="#1a4a2e"/>
  <rect x="115" y="155" width="10" height="10" fill="#1a4a2e"/>
  <rect x="135" y="155" width="10" height="10" fill="#1a4a2e"/>
  <rect x="155" y="155" width="10" height="10" fill="#1a4a2e"/>
  <rect x="175" y="155" width="10" height="10" fill="#1a4a2e"/>
  <rect x="115" y="175" width="10" height="10" fill="#1a4a2e"/>
  <rect x="155" y="175" width="10" height="10" fill="#1a4a2e"/>
  <text x="100" y="190" text-anchor="middle" font-size="8" fill="#6b7280" font-family="Arial">Replace with UPI QR</text>
</svg>
